<svg width="288" height="81" viewBox="0 0 288 81" fill="none" xmlns="http://www.w3.org/2000/svg">
<path d="M7.53607 67.9311C6.69431 67.9311 6.01044 67.2641 6.01044 66.4314V19.0395C6.01044 18.2092 6.69431 17.5374 7.53607 17.5374C8.37735 17.5374 9.06122 18.2092 9.06122 19.0395V66.4314C9.06122 67.2641 8.37735 67.9311 7.53607 67.9311Z" fill="#28475B"/>
<path d="M23.9926 81C23.1508 81 22.4674 80.3305 22.4674 79.5003V1.50068C22.4674 0.671873 23.1508 0 23.9926 0C24.8353 0 25.5187 0.671873 25.5187 1.50068V79.5003C25.5187 80.3305 24.8353 81 23.9926 81Z" fill="#28475B"/>
<path d="M40.3522 60.8873C39.5081 60.8873 38.8261 60.2178 38.8261 59.3876V21.6226C38.8261 20.7904 39.5081 20.1195 40.3522 20.1195C41.1964 20.1195 41.8774 20.7904 41.8774 21.6226V59.3876C41.8774 60.2178 41.1964 60.8873 40.3522 60.8873Z" fill="#28475B"/>
<path d="M56.7109 70.427C55.8682 70.427 55.1848 69.7556 55.1848 68.9254V12.0821C55.1848 11.2504 55.8682 10.5824 56.7109 10.5824C57.5541 10.5824 58.2327 11.2504 58.2327 12.0821V68.9254C58.2327 69.7556 57.5541 70.427 56.7109 70.427Z" fill="#28475B"/>
<path d="M31.8693 40.4209C31.8693 38.2489 30.0802 36.49 27.874 36.49C25.666 36.49 23.8759 38.2489 23.8759 40.4209C23.8759 42.5925 25.666 44.3514 27.874 44.3514C30.0802 44.3514 31.8693 42.5925 31.8693 40.4209Z" fill="#62D3A2"/>
<path d="M14.6556 54.2653C14.6556 52.518 13.2145 51.0984 11.4378 51.0984C9.65882 51.0984 8.21765 52.518 8.21765 54.2653C8.21765 56.0141 9.65882 57.4294 11.4378 57.4294C13.2145 57.4294 14.6556 56.0141 14.6556 54.2653Z" fill="#62D3A2"/>
<path d="M28.7179 8.22388C28.7179 7.03275 27.7389 6.06909 26.5281 6.06909C25.3163 6.06909 24.3378 7.03275 24.3378 8.22388C24.3378 9.41309 25.3163 10.3758 26.5281 10.3758C27.7389 10.3758 28.7179 9.41309 28.7179 8.22388Z" fill="#62D3A2"/>
<path d="M7.53409 26.6186C7.53409 24.5742 5.8472 22.9127 3.76968 22.9127C1.69024 22.9127 0 24.5742 0 26.6186C0 28.6611 1.69024 30.3206 3.76968 30.3206C5.8472 30.3206 7.53409 28.6611 7.53409 26.6186Z" fill="#62D3A2"/>
<path d="M43.3438 28.8197C43.3438 27.9924 42.6637 27.3181 41.8181 27.3181C40.9792 27.3181 40.2958 27.9924 40.2958 28.8197C40.2958 29.649 40.9792 30.3209 41.8181 30.3209C42.6637 30.3209 43.3438 29.649 43.3438 28.8197Z" fill="#62D3A2"/>
<path d="M55.9347 17.9538C55.9347 16.397 54.6562 15.1377 53.0677 15.1377C51.4902 15.1377 50.2103 16.397 50.2103 17.9538C50.2103 19.5101 51.4902 20.7718 53.0677 20.7718C54.6562 20.7718 55.9347 19.5101 55.9347 17.9538Z" fill="#62D3A2"/>
<path d="M40.6964 52.0312C40.6964 50.4197 39.3675 49.111 37.7238 49.111C36.0844 49.111 34.7537 50.4197 34.7537 52.0312C34.7537 53.648 36.0844 54.9572 37.7238 54.9572C39.3675 54.9572 40.6964 53.648 40.6964 52.0312Z" fill="#62D3A2"/>
<path d="M63.7422 54.2631C63.7422 52.1429 61.9938 50.4233 59.8371 50.4233C57.6804 50.4233 55.935 52.1429 55.935 54.2631C55.935 56.3833 57.6804 58.1014 59.8371 58.1014C61.9938 58.1014 63.7422 56.3833 63.7422 54.2631Z" fill="#62D3A2"/>
<path d="M23.9375 70.7535C23.9375 68.5224 22.0956 66.7094 19.8247 66.7094C17.5523 66.7094 15.7119 68.5224 15.7119 70.7535C15.7119 72.9851 17.5523 74.7958 19.8247 74.7958C22.0956 74.7958 23.9375 72.9851 23.9375 70.7535Z" fill="#62D3A2"/>
<path d="M90.4 41.0001H98.83C105.58 41.0001 109.81 36.8001 109.81 30.5001C109.81 24.2001 105.58 20.0001 98.83 20.0001H90.4V41.0001ZM95.14 36.6501V24.3501H98.71C103.42 24.3501 104.89 25.8201 104.89 30.5001C104.89 35.1801 103.42 36.6501 98.71 36.6501H95.14Z" fill="#222222"/>
<path d="M115.052 24.0501C116.912 24.0501 117.962 23.0601 117.962 21.2601C117.962 19.5201 116.912 18.5601 115.052 18.5601C113.222 18.5601 112.202 19.5201 112.202 21.2601C112.202 23.0601 113.222 24.0501 115.052 24.0501ZM112.802 41.0001H117.362V26.0001H112.802V41.0001Z" fill="#222222"/>
<path d="M131.318 26.0001V29.0301C130.388 26.9301 128.588 25.7301 126.158 25.7301C122.438 25.7301 120.278 28.5501 120.278 32.8101C120.278 37.1301 122.528 40.0101 126.308 40.0101C128.648 40.0101 130.388 38.9001 131.318 36.8601V39.6801C131.318 41.9001 130.148 42.8001 128.078 42.8001C126.368 42.8001 125.138 42.4401 124.718 40.7001L120.338 42.4401C120.998 44.9901 123.998 46.4001 127.808 46.4001C132.878 46.4001 135.848 43.5501 135.848 38.6301V26.0001H131.318ZM128.108 36.0501C125.918 36.0501 124.868 35.0301 124.868 32.8701C124.868 30.7101 125.918 29.6901 128.108 29.6901C130.358 29.6901 131.438 30.7101 131.438 32.8701C131.438 35.0301 130.358 36.0501 128.108 36.0501Z" fill="#222222"/>
<path d="M142.005 24.0501C143.865 24.0501 144.915 23.0601 144.915 21.2601C144.915 19.5201 143.865 18.5601 142.005 18.5601C140.175 18.5601 139.155 19.5201 139.155 21.2601C139.155 23.0601 140.175 24.0501 142.005 24.0501ZM139.755 41.0001H144.315V26.0001H139.755V41.0001Z" fill="#222222"/>
<path d="M158.212 29.9901V26.0001H154.072V21.6501H149.511V26.0001H146.841V29.9901H149.511V35.9001C149.511 38.9601 151.552 41.0001 154.612 41.0001H157.911V37.0101H154.072V29.9901H158.212Z" fill="#222222"/>
<path d="M171.732 26.0001V29.4801C170.862 27.0201 169.032 25.7001 166.482 25.7001C162.372 25.7001 160.122 28.8201 160.122 33.5301C160.122 38.1801 162.492 41.3001 166.782 41.3001C169.182 41.3001 170.892 40.0101 171.732 37.6401V41.0001H176.292V26.0001H171.732ZM168.222 37.1601C165.822 37.1601 164.682 35.9901 164.682 33.5301C164.682 31.0101 165.822 29.8401 168.222 29.8401C170.712 29.8401 171.882 31.0101 171.882 33.5301C171.882 35.9901 170.712 37.1601 168.222 37.1601Z" fill="#222222"/>
<path d="M180.184 41.0001H184.744V20.0001H180.184V41.0001Z" fill="#222222"/>
<path d="M203.425 41.3001C208.435 41.3001 211.585 38.5701 211.585 34.4901C211.585 31.4601 209.785 29.2701 206.155 28.6401L202.975 28.1001C200.815 27.7401 199.855 27.4101 199.855 25.8801C199.855 24.4701 200.845 23.7801 202.885 23.7801C204.985 23.7801 206.485 24.2601 206.785 27.2901L211.315 26.0601C210.715 21.5001 207.325 19.7001 202.885 19.7001C198.175 19.7001 194.995 22.2201 194.995 26.0301C194.995 29.9301 197.515 31.7601 200.275 32.2701L204.085 32.9901C206.035 33.3501 206.755 33.7401 206.755 35.1201C206.755 36.5901 205.825 37.2801 203.485 37.2801C201.055 37.2801 199.645 36.5601 199.345 33.4401L194.515 34.6701C195.115 39.3201 198.565 41.3001 203.425 41.3001Z" fill="#222222"/>
<path d="M224.242 25.7001C221.692 25.7001 219.862 27.0201 218.992 29.4801V26.0001H214.432V46.1001H218.992V37.6401C219.832 40.0101 221.542 41.3001 223.942 41.3001C228.232 41.3001 230.602 38.1801 230.602 33.5301C230.602 28.8201 228.352 25.7001 224.242 25.7001ZM222.502 37.1601C220.012 37.1601 218.842 35.9901 218.842 33.5301C218.842 31.0101 220.012 29.8401 222.502 29.8401C224.902 29.8401 226.042 31.0101 226.042 33.5301C226.042 35.9901 224.902 37.1601 222.502 37.1601Z" fill="#222222"/>
<path d="M242.205 25.7601C239.385 25.7601 238.395 28.0701 238.065 30.2601V26.0001H233.505V41.0001H238.065V35.0901C238.065 31.0101 239.955 29.9301 242.055 29.9301C242.895 29.9301 243.345 29.9901 244.035 30.2301V26.0001C243.435 25.7601 242.685 25.7601 242.205 25.7601Z" fill="#222222"/>
<path d="M248.821 24.0501C250.681 24.0501 251.731 23.0601 251.731 21.2601C251.731 19.5201 250.681 18.5601 248.821 18.5601C246.991 18.5601 245.971 19.5201 245.971 21.2601C245.971 23.0601 246.991 24.0501 248.821 24.0501ZM246.571 41.0001H251.131V26.0001H246.571V41.0001Z" fill="#222222"/>
<path d="M264.338 25.7001C261.878 25.7001 260.318 26.9301 259.598 29.3901V26.0001H255.038V41.0001H259.598V33.7101C259.598 31.0101 260.738 29.8401 262.538 29.8401C264.218 29.8401 265.058 30.6801 265.058 32.5101V41.0001H269.618V32.2401C269.618 27.8301 267.908 25.7001 264.338 25.7001Z" fill="#222222"/>
<path d="M283.428 26.0001V29.0301C282.498 26.9301 280.698 25.7301 278.268 25.7301C274.548 25.7301 272.388 28.5501 272.388 32.8101C272.388 37.1301 274.638 40.0101 278.418 40.0101C280.758 40.0101 282.498 38.9001 283.428 36.8601V39.6801C283.428 41.9001 282.258 42.8001 280.188 42.8001C278.478 42.8001 277.248 42.4401 276.828 40.7001L272.448 42.4401C273.108 44.9901 276.108 46.4001 279.918 46.4001C284.988 46.4001 287.958 43.5501 287.958 38.6301V26.0001H283.428ZM280.218 36.0501C278.028 36.0501 276.978 35.0301 276.978 32.8701C276.978 30.7101 278.028 29.6901 280.218 29.6901C282.468 29.6901 283.548 30.7101 283.548 32.8701C283.548 35.0301 282.468 36.0501 280.218 36.0501Z" fill="#222222"/>
<path d="M105.04 50.0001L99.76 64.4301L98.08 69.3201L96.37 64.3701L91.12 50.0001H88.45L96.37 71.0001H99.85L107.71 50.0001H105.04Z" fill="#222222"/>
<path d="M121.069 63.5601C121.069 59.2401 118.369 56.6001 114.559 56.6001C110.629 56.6001 107.719 59.5701 107.719 63.9501C107.719 68.4201 110.449 71.3001 114.679 71.3001C117.319 71.3001 119.749 70.2201 120.739 67.7301L118.579 66.8901C117.919 68.7501 116.989 69.3201 114.679 69.3201C111.589 69.3201 110.239 68.0001 110.089 64.6701H121.039C121.069 64.1601 121.069 63.9801 121.069 63.5601ZM114.529 58.5501C117.379 58.5501 118.579 59.7501 118.759 62.7801H110.119C110.389 59.9001 111.829 58.5501 114.529 58.5501Z" fill="#222222"/>
<path d="M132.444 56.6001C129.474 56.6001 127.974 58.1601 127.284 60.3801V56.9001H124.974V71.0001H127.284V64.4901C127.284 60.8301 129.024 58.7001 131.784 58.7001C133.884 58.7001 135.264 59.9601 135.264 62.2701V71.0001H137.574V62.1201C137.574 58.5801 135.744 56.6001 132.444 56.6001Z" fill="#222222"/>
<path d="M149.973 59.0001V56.9001H145.473V52.4601H143.163V56.9001H139.983V59.0001H143.163V67.5501C143.163 69.6201 144.543 71.0001 146.613 71.0001H149.463V68.9001H145.473V59.0001H149.973Z" fill="#222222"/>
<path d="M163.297 56.9001V63.4101C163.297 67.0701 161.557 69.2001 158.797 69.2001C156.697 69.2001 155.317 67.9401 155.317 65.6301V56.9001H153.007V65.7801C153.007 69.3201 154.837 71.3001 158.137 71.3001C161.107 71.3001 162.607 69.7401 163.297 67.5201V71.0001H165.607V56.9001H163.297Z" fill="#222222"/>
<path d="M177.636 56.6301C174.786 56.6301 173.526 58.5801 173.016 60.9201V56.9001H170.706V71.0001H173.016V64.5801C173.016 61.5501 174.306 58.8201 177.336 58.8201C178.536 58.8201 179.016 59.0301 179.286 59.1801V56.8401C178.896 56.6601 178.326 56.6301 177.636 56.6301Z" fill="#222222"/>
<path d="M193.96 63.5601C193.96 59.2401 191.26 56.6001 187.45 56.6001C183.52 56.6001 180.61 59.5701 180.61 63.9501C180.61 68.4201 183.34 71.3001 187.57 71.3001C190.21 71.3001 192.64 70.2201 193.63 67.7301L191.47 66.8901C190.81 68.7501 189.88 69.3201 187.57 69.3201C184.48 69.3201 183.13 68.0001 182.98 64.6701H193.93C193.96 64.1601 193.96 63.9801 193.96 63.5601ZM187.42 58.5501C190.27 58.5501 191.47 59.7501 191.65 62.7801H183.01C183.28 59.9001 184.72 58.5501 187.42 58.5501Z" fill="#222222"/>
<path d="M202.604 71.3001C205.964 71.3001 208.184 69.5601 208.184 66.9501C208.184 64.7001 206.744 63.6501 204.674 63.2601L201.134 62.5701C199.844 62.3301 199.424 61.7901 199.424 60.6501C199.424 59.2701 200.354 58.6401 202.364 58.6401C204.224 58.6401 205.364 59.0301 205.664 61.7001L207.944 61.0701C207.344 57.6801 204.974 56.6001 202.274 56.6001C199.154 56.6001 197.084 58.2801 197.084 60.8301C197.084 63.4401 198.974 64.4601 201.014 64.8501L203.774 65.3901C205.484 65.7201 205.904 66.1401 205.904 67.3401C205.904 68.6601 204.884 69.2601 202.754 69.2601C200.414 69.2601 199.274 68.4801 198.884 66.2001L196.604 66.9501C197.264 69.8601 199.544 71.3001 202.604 71.3001Z" fill="#222222"/>
</svg>
