<svg width="22" height="22" viewBox="0 0 22 22" fill="none" xmlns="http://www.w3.org/2000/svg">
<rect width="22" height="22" rx="1" fill="#0063A3"/>
<path fill-rule="evenodd" clip-rule="evenodd" d="M5.50027 6C4.67184 6.00015 4.00015 5.3287 4 4.50027C3.99985 3.67184 4.6713 3.00015 5.49973 3C6.32816 2.99985 6.99985 3.6713 7 4.49973C7.00007 4.89756 6.8421 5.27911 6.56085 5.56047C6.2796 5.84182 5.89809 5.99993 5.50027 6ZM17.9988 17H15.1151V12.2564C15.1151 11.1252 15.0959 9.66904 13.6153 9.66904C12.1134 9.66904 11.8837 10.9015 11.8837 12.174V16.9997H9V7.24484H11.7683V8.57795H11.8071C12.3715 7.56414 13.4211 6.95864 14.5384 7.0022C17.4611 7.0022 18 9.02158 18 11.6487L17.9988 17ZM4 17H7V7H4V17Z" fill="white"/>
</svg>
