<svg width="24" height="18" viewBox="0 0 24 18" fill="none" xmlns="http://www.w3.org/2000/svg">
<path d="M2.84594 3.67196C2.87576 3.39363 2.76341 3.11854 2.54342 2.93122L0.302521 0.380952V0H7.2605L12.6387 11.1429L17.3669 0H24V0.380952L22.084 2.1164C21.9189 2.23535 21.8369 2.43085 21.8711 2.62434V15.3757C21.8369 15.5692 21.9189 15.7647 22.084 15.8836L23.9552 17.619V18H14.5434V17.619L16.4818 15.8413C16.6723 15.6614 16.6723 15.6085 16.6723 15.3333V5.02645L11.2829 17.9577H10.5546L4.28011 5.02645V13.6931C4.2278 14.0575 4.35589 14.4243 4.62745 14.6878L7.14846 17.5767V17.9577H0V17.5767L2.52101 14.6878C2.79059 14.4239 2.91122 14.0546 2.84594 13.6931V3.67196Z" fill="#222222"/>
</svg>
