<svg width="14" height="14" viewBox="0 0 14 14" fill="none" xmlns="http://www.w3.org/2000/svg">
<path fill-rule="evenodd" clip-rule="evenodd" d="M1.50027 3C0.671842 3.00015 0.000148815 2.3287 2.4663e-08 1.50027C-0.000148583 0.671842 0.671304 0.000148824 1.49973 2.46659e-08C2.32816 -0.000148592 2.99985 0.671304 3 1.49973C3.00007 1.89756 2.8421 2.27911 2.56085 2.56047C2.2796 2.84182 1.89809 2.99993 1.50027 3ZM13.9988 14H11.1151V9.25636C11.1151 8.1252 11.0959 6.66904 9.61535 6.66904C8.11344 6.66904 7.88365 7.90149 7.88365 9.17401V13.9997H5V4.24484H7.76831V5.57795H7.80706C8.37153 4.56414 9.4211 3.95864 10.5384 4.0022C13.4611 4.0022 14 6.02158 14 8.64866L13.9988 14ZM2.4663e-08 14H3V4H2.4663e-08V14Z" fill="white"/>
</svg>
